<?xml version="1.0" standalone="no"?>
<!DOCTYPE svg PUBLIC "-//W3C//DTD SVG 1.1//EN" "http://www.w3.org/Graphics/SVG/1.1/DTD/svg11.dtd" >
<svg xmlns="http://www.w3.org/2000/svg">
<metadata>Generated by IcoMoon</metadata>
<defs>
<font id="icomoon" horiz-adv-x="1024">
<font-face units-per-em="1024" ascent="960" descent="-64" />
<missing-glyph horiz-adv-x="1024" />
<glyph unicode="&#x20;" d="" horiz-adv-x="512" />
<glyph unicode="&#x21;" d="M2 442q-3 194.5 134.25 334.75t331.75 142.25 333.75-133 142.25-329.5-133.25-334.75-330.75-143.5-334.75 133-143.25 330.75zM289.5 554.5h113v4.5q0 26.5 16 55 16.5 24.5 56.5 24.5t52.5-20.5q16.5-20.5 16-45 0-18.5-16-41-8-12.5-20.5-20.5l-22.5-15q-10-7-20.5-15.5l-21.5-17.5q-11.5-9-17.5-17.5-14.5-20.5-18.5-79.5v-8.5h110.5v4q0 12.5 4 29 6 20.5 29 36.5l28.5 18.5q47.5 35 57.5 51.5 26.5 35 26.5 79.5 0 80-54.25 119t-138.25 39q-65.5 0-106.5-26.5-69.5-43-74-149.5v-4.5zM396 233q0-30.5 19.5-50t48.5-21.5h2q30.5 0 50 19.5t19.5 48q2 30.5-17.5 50t-50 19.5h-2q-28.5 0-48-18.25t-22-47.25z" horiz-adv-x="942" />
<glyph unicode="&#x22;" d="M55.5 581.5q0-28.5 20.5-50.5l248.5-274.5q18.5-20.5 46.25-20.5t48.25 20.5l248.5 274.5q18.5 20.5 18.5 51.25t-19.5 51.25-47 20.5-48-20.5l-199-222-203.5 222q-20.5 20.5-48.25 20.5t-46-20.5-19.25-52z" horiz-adv-x="720" />
<glyph unicode="&#x23;" d="M66.5 600q0-26.5 20.5-46.25t49.25-18.5 48.25 18.5 19.5 46 11 56.25q18.5 44 58.5 68.75t88 25.75q66.5 0 111.5-44.25t46-105.5-46-105.25-111.5-45.5q-29.5 0-49-19.25t-19.5-43.75v-57.5q0-28.5 19.5-48t48-18.5 48 18.25 20.5 48.25q99.5 20.5 163 96.25t64.5 174.25q0 115.5-86 198.5t-209 82q-92 0-165.75-48.25t-108.75-126.25q-20.5-50.5-20.5-106zM265 109.5q0-38 28.75-64.75t68.75-25.75 67.5 25.75 26.5 64.5-26.5 63.5-67.5 26.75-68.75-26.5-28.75-63.5z" horiz-adv-x="720" />
<glyph unicode="&#x24;" d="M0 108q4 93 39 187.5 76 208 244.5 208 84 0 148.5-48 18.5-13.5 20.5-36t-11.25-39-33.75-20.5-40 10.5q-36 27.5-84 27.5-44 0-77.75-29.75t-51.25-67.5-29.75-86-15.25-71.75-4-40q2-24.5 14.25-33.75t35.75-9.25h232.5q64.5 0 72 13.5 9 9 9 73.5v2q0 23.5 14.25 38t36.75 14.5 37-14.5 14.5-38v-2q0-96.5-22.5-135-41-56.5-161-55.5h-232.5q-80 0-117.75 44t-37.75 105.5v2zM91 764.5q0 82 57.5 138.25t138.25 57.25 138.25-57.25 57.5-138.25-57.5-137.25-138.25-55.25-138.25 55.25-57.5 137.25zM196.5 766.5q0-37 27.75-63.5t63.5-25.5 62.5 25.75 24.5 63.5-24.75 62.25-62.25 26.75-63.5-26.5-27.75-62.75zM562 417.5q0-21.5 15.5-38t38-15.5h125v-123.5q0-23.5 16.25-38t35.75-14.5 37 14.5 16.5 38v123.5h126q20.5 0 35.75 15.5t16.25 38-16.5 37.75-35.5 16.75h-126v125.5q0 22.5-16.5 37t-37 15.5-35.75-15.5-16.25-37v-125.5h-125q-23.5 0-38-16.5t-15.5-38z" />
<glyph unicode="&#x25;" d="M317.5 612q0-142.5 98-241.5 89-87 209-98.25t220.5 53.25l261-263.5q22.5-20.5 52.25-20.5t50.25 21.5 20.5 51.25-20.5 51.25l-263.5 262q66.5 98.5 54.25 219.25t-97.25 206.75q-102.5 102.5-242.75 102.5t-241.5-100.25-100.25-243.75zM452.5 613q0 87 60.5 147.5t145.5 60.5 146.5-60.5 60.25-147.5-60.5-147.5-146.25-60.5-145.5 60.5-60.5 147.5z" horiz-adv-x="1536" />
<glyph unicode="&#x26;" d="M0 860q0-16.5 10.25-26.75t26.75-10.25h146.5q4 0 15.25-6.25t14.25-11.25l26.5-110.5v-2l41-148.5q0-5 3-5l63.5-240v-6q35-66.5 94.5-66.5h443q15.5 0 27.75 10.25t11.25 24.5-11.25 26.5-27.75 11.25h-443q-13.5 0-26 22.5l-40.5 150h461.5q31.5 0 56.25 19.25t38.25 48.25l91 263q2 5 2 11.5 0 36-23.5 58.25t-59.5 24.25h-492.5q-16.5 0-26.75-10.25t-10.25-26.5 10.25-26.5 26.75-10.25h492.5q7 0 7-4l-87-252q-8-22.5-24.5-22.5h-461.5q-11.5 0-26 20.5l-65.5 258q-9 29.5-39.75 51t-60.25 22.5h-146.5q-16.5 0-26.75-10t-10.25-26.5zM402.5 85.5q0 26.5 18.5 45t44 18.5 46-18.25 19.5-45-19.5-45.25-46.25-19.5-44 19.5-18.25 45zM805 85.5q0 26.5 19.5 45t45 18.5 45-18.25 18.5-45-18.5-45.25-45.25-19.5-45 19.5-19.25 45z" />
<glyph unicode="&#x27;" d="M137 178v2q0-33.5 25.25-56.5t60.5-24 60.25 25l319.5 290.5q24 21 24 53.25t-24 54.25l-319.5 290q-25 25-60.25 25t-60.5-25-25.25-55.25 27.5-54.75l258-234.5-258-236.5q-27.5-20-27.5-53.5z" horiz-adv-x="720" />
<glyph unicode="&#x28;" d="M128 448q0 157.5 113.75 271.25t270.25 112.75 269.25-112.5 112.75-271.25-112.75-269.25-269.25-112.75-270.25 112.5-113.75 269.25zM308 449q0-17.5 13.5-30.75t31-13.25h116.5v-116.5q0-16.5 12.25-28.75t29.75-12.25 30.75 12.25 14.25 28.75v116.5h115.5q16.5 0 28.75 13.5t12.25 30.75-12.25 29.5-28.75 13.25h-115.5v116q0 18.5-14.25 31.75t-30.75 12.25-29.75-12.25-12.25-31.75v-116h-116.5q-18.5 0-31-13.25t-13.5-29.75z" />
<glyph unicode="&#x29;" d="M142 444.5q0-150.5 107.75-256t257.25-107.5 255.25 107.75 107.75 256-107.75 258.25-254.75 106.75-257.25-107-108.25-258.25zM446.25 582q0.25 15.5 11.5 25.75t23.75 11.5 25.5-11.25l131.5-132.5q14-9 13-23.75t-13-26.25l-131.5-133q-11.5-10-25.75-10t-23.5 10.25-11.25 26.25q0 14.5 11 26l108 104.5-108 109q-11.5 8-11.25 23.5z" />
<glyph unicode="&#x2a;" d="M143.5 174q0-41 28.5-69.75t68.5-28.75 69.5 30.5l206 205 206-205q29.5-29.5 69.5-30.5t68.75 28.75 28.75 68.5-30 69.75l-205.5 205.5 205.5 206q29.5 29.5 29.75 69.5t-28.5 68.75-68.75 28.75-69.5-30l-206-205.5-206 205.5q-28.5 29.5-69.5 29.75t-68.5-28.5-28.5-68.75 29.5-69.5l206-206-206-205.5q-29.5-27.5-29.5-68.5z" />
<glyph unicode="&#x2b;" d="M0 448q0-212 149.5-362.5t362.5-149.5 362.5 149.5 149.5 362.5-149.5 362.5-362.5 149.5-362.5-149.5-149.5-362.5zM152.5 695q0 13.5 8.25 22.5t19.25 8h96.5q18.5 0 40-16.25t26.5-34.75l2-2 43-169q7-11.5 14.5-11.5h304q7 0 13.5 13.5l57 162h-326.5q-11.5 0-19.5 8t-8 20.5 8.25 21.5 19.25 8h324.5q22.5 0 40-17.25t17.5-42.75q0-3-3-9.5l-59.5-171q-22.5-48-63.5-48h-299l24.5-93q7-12.5 13.5-12.5h293q9 0 17.25-8.25t8.25-18.5-8.25-19.5-17.25-8.25h-293q-41 0-63.5 45-3 3-2 5.5l-41 157.5-3 2-24.5 100.5-18.5 71.5q-5 8-16.5 8.5h-96.5q-11.5 0-19.5 8t-8 19.5zM413.5 182q0 19.5 15.5 33.75t35 13.25 32.75-13.25 13.25-33.75-13.25-33.75-32.75-15.5-35 15.25-15.5 34zM671.5 182q0 19.5 14.5 33.75t34 13.25 35.75-13.25 14.25-33.75-14.25-33.75-35.75-15.5-34 15.25-14.5 34z" />
<glyph unicode="&#x2c;" d="M0 453.5q0-211 148.5-359.5t358.5-148.5 359.5 148.5 148.5 359.5-148.5 359.25-359.5 147.25-358.5-147.25-148.5-359.25zM237.5 263q114.5 0 174 54-90 13.5-110.5 84 9 2 18.25 1t18.5-1 15.75 2q-92 37-95.5 118 6 0 21.5-5.25t28.5-4.25q-26.5 18.5-42.75 65.75t7.25 93.25q104.5-113.5 247.5-127-8 46 11.5 82.75t56.25 54.25 74.75 11.5 66.5-37q27.5 7 77 27.5-8-27.5-49.5-66.5 48 11.5 61.5 18.5-3-7-6-12.25t-10.25-14.5-12.25-11.25-15.5-11l-11-9.5q5-83-24.75-153.5t-86-117.75-124.75-71.75-145.5-18.25-144.5 48.25z" />
<glyph unicode="&#x2d;" d="M0 448q0-212 149.5-362.5t362.5-149.5 362.5 149.5 149.5 362.5-149.5 362.5-362.5 149.5-362.5-149.5-149.5-362.5zM263 544.5q4 89 68.75 150.5t148.75 68.5q104.5 13.5 184.25-33.75t91.75-139.25q15.5-114.5-41.75-203.75t-161.75-82.75q-18.5 3-29.75 7t-30.75 17.25-23.5 17.75q-16.5-83-37-135.25t-61.5-82.25q-9 39-4 94.25t13.25 86 19.5 80 21.75 80.75q-16.5 31.5-14.5 71.75t29.75 67.75 64.25 13.5q31.5-11.5 29.75-50.5t-20.25-79.75-15.5-77.75 42-44q44-7 77.75 24.5t48.25 82.75 7.25 104.5-33.75 80.75q-39 41-96.25 46.25t-104.5-20.5-78-75.75-18.25-107.5q2-13.5 9.25-25.75t11.25-22.5 4-25.5-9-33.75q-94.5 22.5-91.5 146.5z" />
<glyph unicode="&#x2e;" d="M0 448q0-212 149.5-362.5t362.5-149.5 362.5 149.5 149.5 362.5-149.5 362.5-362.5 149.5-362.5-149.5-149.5-362.5zM196.5 288.5v319.5q0 64.5 46.25 111.5t111.75 47h315q66.5 0 111.75-47t46.25-111.5v-319.5q0-64.5-46.25-110.5t-111.75-47h-315q-66.5 0-111.75 47t-46.25 110.5zM254 288.5q0-41 29.75-70.75t70.75-29.75h315q41 0 70.75 29.75t29.75 70.75v206h-118.5q13.5-28.5 13-64.5 0-61.5-43-104.5t-106.5-44-107.5 44-44 104.5q0 36 16.5 64.5h-126v-206zM254 553.5h174q41 27.5 88 27.75t87-27.75h167v54.5q0 41-29.75 71.75t-70.75 29.75h-315q-41 0-70.75-29.75t-29.75-71.75v-54.5zM452.5 432q0-25.5 18.5-45t43-18.5 45 18.25 19.5 45-19.5 43-45 17.5-43-17.25-18.5-43z" />
<glyph unicode="&#x2f;" d="M0 448q0-212 149.5-362.5t362.5-149.5 362.5 149.5 149.5 362.5-149.5 362.5-362.5 149.5-362.5-149.5-149.5-362.5zM363.5 446v112h64.5v62l2 25q2 24.5 4 26.5t6.25 22.5 9.25 22.5 12.25 16.25 17.5 14.25 19.5 8.25 23.5 6.25 22.5 4.25 26.75 2.75h89v-107.5q-80 2-93-16-3-5-5.25-15.5t-2.25-21.5v-50h100.5q-2-49-11.5-112h-85v-317.5h-136v317.5h-64.5z" />
<glyph unicode="&#x30;" d="M16.5 448q0-41 29.75-70.5t70.25-29.5h295v-295q0-43 29.75-71.75t70.75-28.75 70.75 28.75 29.75 71.75v295h295q41 0 70.5 29.5t29.5 70.5-29.75 71.75-70.25 29.75h-295v294q0 44-29.75 72.75t-70.75 27.75-70.75-27.75-29.75-72.75v-294h-295q-41 0-70.5-29.75t-29.5-71.75z" />
<glyph unicode="&#x31;" d="M16.5 448q0 42 29.75 71.75t70.25 29.75h791q41 0 70.5-29.75t29.5-71.75-29.75-70.5-70.25-29.5h-791q-41 0-70.5 29.5t-29.5 70.5z" />
<glyph unicode="&#x32;" d="M175 449.5q0-149 105.5-254.5t255.25-106.5 253 106.5 106.5 254-106.5 254-253.25 105.5-255-105.25-105.5-253.75zM393 449.5q0 14.5 10.5 24.5l131.5 130q10 13 23.25 11.5t24.75-11.75 11.5-23.5-11.5-24.75l-106-105 106-106.5q13-9.5 11.75-25t-11.75-25.75-24.75-11.5-23.25 11.25l-131.5 132q-10.5 9.5-10.5 24.5z" />
<glyph unicode="&#x35;" d="M4 194v2.5q5 94 39 188 75 208 245.5 208 83 0 147.5-48 18.5-13.5 20.5-35t-11.25-38.75-33.75-20.5-40 9.25q-35 28.5-83 28.5-45 0-78.75-29.75t-51-68.5-29.75-86-15.5-70.75-4-40q2-25.5 14.25-33.75t36.75-9.25h232.5q62.5 0 72 12.5 7 9 7 73.5v3.5q0 21.5 14.25 36.75t38 14.25 37-14.25 15.25-36.75v-3.5q0-96.5-24.5-134-41-57.5-159-57.5h-232.5q-80 0-118.75 45t-37.75 104.5zM96 856q0 82 57.5 138.25t137.25 55.25 138.25-56.5 57.5-137.25-57.5-138.25-138.25-56.5-137.25 56.5-57.5 138.5zM201.5 856q0-37 26.75-63.75t62.5-26.75 62.5 26.75 25.75 63.5-25.75 62.5-62.5 26.75-62.5-25.5-26.75-63.5zM497.5 465.5l68.5 50.5 89.5-109 188.5 155 52-59.5-256-211z" />
<glyph unicode="&#x36;" d="M4 145v353.5q3 20.5 20.5 20.5h32q52 0 52-166l-11-72.5q28.5-92 103-93.5h644.5q66.5 0 103 83l-9 103.5v186.5l9 124.5-20.5 10.5h-20q-296-279.5-301.5-279.5-75-30.5-93-32-89 0-395 322.5l-114 93.5v103.5q3 20.5 20.5 20.5h997.5q20.5-3 20.5-20.5v-758q0-10-52.5-52h-933.5q-11.5 0-52.5 52zM191.5 809.5q262-291 321.5-290.5 67.5 0 321.5 290.5v20.5h-643v-20.5z" horiz-adv-x="769" />
<glyph unicode="&#x39;" d="M77 620q0-51 34.75-129.75t87-158.75 83-122 54.25-71.5q15.5-20.5 41-20.5 15.5 0 30.75 11.25t17.25 31.75-9.5 37q-87 109.5-163.75 237.5t-75.75 185q0 82 59.5 138.5t140.25 55.25 139.25-56.5 58.5-137.25q0-71.5-121-256-12.5-19.5-7.25-37.75t22.75-30.5 38-7.25 30.5 20.5q135 211 135 311 0 121-87 206t-209.75 86-210.75-85-87-207zM304 602q0-28.5 20.5-49.25t50.25-19.75 51.25 19.5 21.5 49.25-21.5 51.25-51.25 21.5-50.25-21.5-20.5-51z" horiz-adv-x="720" />
<glyph unicode="&#x3a;" d="M0-64v1024h256v-1024h-256zM512-64v1024h256v-1024h-256z" horiz-adv-x="768" />
<glyph unicode="&#x3b;" d="M0-64v1024l768-512z" horiz-adv-x="768" />
<glyph unicode="&#x3c;" d="M66.5 155.5q0 29.5 20.5 51l278.5 278.5-278.5 276.5q-20.5 23.5-20.5 52.25t20.5 50.25l45 44q19.5 22.5 51.25 22.5t50.25-22.5l375-373q20.5-20.5 20.25-50t-20.25-53l-375-372q-20.5-20.5-50.25-20.5t-51.25 20.5l-45 43q-20.5 24-20.5 52.5z" horiz-adv-x="655" />
<glyph unicode="&#x3d;" d="M0 177v71.5q0 14.5 11.25 24.75t24.75 11.25h784q14.5 0 25.75-11.25t10.25-24.75v-71.5q0-14.5-10.25-25.75t-25.75-10.25h-784q-14.5 0-24.75 10.25t-11.25 25.75zM0 462.5v71.5q0 13.5 11.25 24.75t24.75 10.25h784q14.5 0 25.75-10.25t10.25-24.75v-71.5q0-14.5-10.25-25.75t-25.75-9.25h-784q-14.5 0-24.75 9.25t-11.25 25.75zM0 747v72q0 15.5 11.25 25.5t24.75 10h784q14.5 0 25.75-10.25t10.25-25.25v-72q0-15.5-10.25-24.5t-25.75-11h-784q-14.5 0-24.75 11t-11.25 24.5z" horiz-adv-x="877" />
<glyph unicode="&#x3e;" d="M29.5 486q0 30.5 20.5 51.5l375 372.5q20.5 20.5 51.25 20.5t52.25-20.5l43-43q20.5-20.5 20.5-52.25t-20.5-51.25l-278.5-278.5 278.5-276.5q20.5-23.5 20.5-53.25t-20.5-49.25l-43-44q-20.5-20.5-52.25-20.5t-51.25 20.5l-375 373q-20.5 20.5-20.5 51z" horiz-adv-x="655" />
<glyph unicode="&#x40;" d="M0 448q0 97.5 38 186.5t102.5 152.5 153.5 102.5 186.25 38 186.25-38 152.5-102.5 102.5-152.5 38-186.25-38-186.25-102.5-153.75-152.5-102.5-186.25-37.75-186.25 38-153.75 102.25-102.5 153.5-37.75 186.25zM267.5 289.5q0-22.5 15.25-38t37.75-16.5 38 15.5l122 122 120.5-122q15.5-15.5 38-15.5t37.75 16.5 15.25 38-15 38l-121 120.5 121 122q15.5 15.5 15.25 38t-15.5 37.75-37.75 15.25-38-15l-120.5-122-122 122q-15.5 16.5-38 15.25t-37.75-15.5-15.25-37.75 15-38l121-122-121-120.5q-15-15.5-15-38z" horiz-adv-x="958" />
<glyph unicode="&#x41;" d="M0 153.5q14.5-2 47-2.5 135 0 239.5 82-63.5 2-112.5 39t-67.5 96.5q9-4 36-4.5h2q24.5 0 48 6.5-67.5 15.5-110.5 67.5t-43 123v2q37-20.5 86-24.5-86 60.5-86 161.5 0 49 26.5 96.5 157.5-192.5 399.5-201-6 18.5-6 43 0 80 56.25 136.25t139.25 56.25 138-59q61.5 13.5 123 45-20.5-67.5-84-106.5 57.5 8 110.5 30.5-37-55.5-96-100.5v-24.5q0-133-61.5-255.75t-190.5-207.75-297-85q-164 0-297 86z" horiz-adv-x="940" />
<glyph unicode="&#x42;" d="M0 440v151.5h155.5v88q0 96.5 60.5 163t150.5 66.5h145.5v-159.5h-145.5q-14.5 0-25.75-15.5t-11.25-38v-104.5h182.5v-151.5h-182.5v-452.5h-174v452.5h-155.5z" horiz-adv-x="512" />
<glyph unicode="&#x43;" d="M0 187q0 62.5 32.75 104.5t85 58.5 90.25 22.5 72.5 6h2q-16.5 22.5-24.5 48.25t-8 39.75l2 14.5h-14.5q-65.5 0-112.5 30.5-76 45-76 164 0 59.5 25.75 104.5t57.5 66.5 70.5 34.75 57.25 15.5 26.5 2.25h235.5v-4.5q0-22.5-79.5-36.5-28.5 0-39-6.5 41-20.5 55.25-57.25t14.25-98.25q0-104.5-69.5-162-39-39-39-56.25t51-64.25q106.5-91 106.5-182.5 0-143.5-118.5-198.5-68.5-35-150.5-35h-7l-4.5 2q-2-2-4-2-24.5 0-55.25 5.25t-76.75 21.5-75.75 58.25-29.75 104.5zM102.5 188q5-53 54-83 44-24.5 102.5-24.5 9 0 18.5 1 70.5 4 112.5 41 39 34 39 81 0 5-1 9-4 53-44 86t-105.5 33h-16.5q-65.5-2-116.5-47-43-40-43-88v-8.5zM152.5 711.5q0-24.5 7-50.5 14.5-53 48.25-86.75t72.75-33.75q12.5 0 18.5 2 43 13.5 64.5 66.5 11.5 28.5 11.5 60.5 0 26.5-8.5 55-30.5 110.5-125 111-12.5 0-20.5-2.5-41-12.5-58-63.5-9.5-28.5-10.5-58zM514 450v96.5h153.5v153.5h96.5v-153.5h153.5v-96.5h-153.5v-153.5h-96.5v153.5h-153.5z" horiz-adv-x="918" />
<glyph unicode="&#x44;" d="M0 588.5v15.5q4 142.5 107.5 240.75t238.5 113.25q33 4 63.5 4 129 0 233.5-62 129-77 147.5-224.5 6-40 6-80 0-133-73.5-244.5-86-133-232.5-133-12.5 0-25.5 1-22.5 2-43 9t-30.75 13.25-31.75 21.5-32 21.75q-26.5-133-59.25-216t-98.25-132.5q-6 76-7 123v7q0 44 11 105.5 12.5 65.5 22.75 106.5t26.5 101.5 24.75 101.5q-20.5 44-20.5 97 0 10 1 22 5 65.5 49 108.5 28.5 27.5 63.5 27.5 18.5 0 38-7 41-16.5 45-60.5 1-7 1-16.5 0-37-14.5-81-17.5-53-32.5-105.5-9-29.5-9.5-56 0-19.5 5.5-36 12.5-40 64.5-50 15.5-2 29.5-3.5h1q50 0 93 42 54.5 52 76 134.5 14.5 56.5 14.5 111.5 0 27.5-3.5 55-10 86-55 131.5-63.5 65.5-154.5 71.5-12.5 1-25 1-77 0-142-35-77-40-123-119.5-36-61.5-36-132 0-20.5 4.25-42t21.5-53.25 21.75-48.25q1-3 0-6 0-18.5-17.5-62.5-143.5 33.5-143.5 220z" horiz-adv-x="795" />
<glyph unicode="&#x45;" d="M0 534v133.5q55.5 18.5 94.25 51.25t63.25 81.75q24.5 53 31 118.5h133v-237.5h221v-147.5h-221v-241.5q0-86 8-104.5 10-24.5 33-37 27-20 65.5-20h4q69.5 0 141.5 47v-147.5q-49-26.5-108.5-41-47-12.5-100.5-12.5h-4q-59.5 0-112.5 16.5-55.5 20.5-84 47-37 33-47.5 65.5-14 27.5-14 85.5v342.5h-102.5z" horiz-adv-x="571" />
<glyph unicode="&#x46;" d="M1095.68 663.040q13.312-36.864-86.016-167.936-13.312-18.432-36.864-49.152-45.056-57.344-51.2-74.752-10.24-23.552 7.168-46.080 10.24-12.288 47.104-47.104v0h1.024v-1.024l1.024-1.024q80.896-74.752 109.568-125.952 2.048-3.072 4.096-7.168t3.072-15.36 0-19.456-14.336-15.36-33.792-7.168l-146.432-3.072q-13.312-2.048-31.744 3.072t-29.696 12.288l-11.264 7.168q-17.408 12.288-39.936 36.864t-38.912 44.032-34.816 32.768-32.768 9.216q-1.024 0-4.096-2.048t-10.24-8.192-12.288-16.384-9.216-29.696-4.096-45.056q0-8.192-2.048-15.36t-4.096-10.24l-2.048-3.072q-10.24-11.264-30.72-12.288h-65.536q-40.96-3.072-82.944 9.216t-75.776 29.696-58.368 37.888-40.96 32.768l-14.336 14.336q-5.12 5.12-15.36 16.384t-40.96 52.224-60.416 86.016-69.632 120.832-74.752 155.648q-4.096 9.216-4.096 15.36t2.048 9.216l2.048 3.072q9.216 11.264 32.768 11.264l156.672 1.024q7.168-1.024 13.312-4.096t9.216-4.096l3.072-2.048q9.216-6.144 13.312-18.432 11.264-28.672 26.624-59.392t23.552-46.080l9.216-16.384q16.384-34.816 31.744-59.392t27.648-38.912 23.552-22.528 19.456-8.192 15.36 3.072q1.024 1.024 3.072 3.072t7.168 12.288 7.168 26.624 5.12 47.104 0 70.656q-1.024 23.552-5.12 41.984t-7.168 26.624l-4.096 6.144q-14.336 19.456-48.128 24.576-8.192 2.048 3.072 14.336 9.216 10.24 21.504 17.408 29.696 14.336 136.192 13.312 47.104-1.024 76.8-7.168 12.288-3.072 19.456-8.192t12.288-13.312 5.12-18.432 2.048-26.624 0-30.72-2.048-40.96 0-47.104q0-6.144-1.024-23.552t0-27.648 2.048-22.528 6.144-22.528 13.312-14.336q4.096-1.024 9.216-2.048t15.36 6.144 21.504 19.456 29.696 38.912 38.912 61.44q33.792 59.392 61.44 128 2.048 6.144 5.12 10.24t6.144 6.144l2.048 2.048 3.072 1.024t8.192 2.048 11.264 0l163.84 1.024q22.528 3.072 36.864-1.024t17.408-10.24z" horiz-adv-x="1097" />
<glyph unicode="&#x5c;" d="M68.5 430q0 23.5 16.5 39.5l78 77q15.5 16.5 39 16.5t37.5-16.5l169-169 376 377q15.5 15.5 39 14.25t37.5-14.25l79-77q15.5-18.5 15.5-42t-15.5-35.5l-491.5-494q-16.5-14.5-39-14.25t-39 14.25l-77.5 77-208 208q-16.5 16.5-16.5 39z" />
<glyph unicode="&#x5e;" d="M29.5 266q0 29.5 22.5 52l373 373q20.5 20.5 50.25 20.5t53.25-20.5l369.5-373q22.5-22.5 22.5-52.25t-20.5-49.75l-43-44.5q-22.5-22.5-52-22.5-33 0-50.5 22.5l-279.5 276.5-278.5-276.5q-18.5-22.5-50.25-22.5t-49.75 22.5l-44.5 44.5q-22.5 19.5-22.5 50z" horiz-adv-x="948" />
<glyph unicode="&#x7e;" d="M29.5 558q0 29.5 22.5 53l41 43q23.5 20.5 53.25 20.5t50.25-20.5l278.5-278.5 279.5 278.5q20.5 20.5 50.25 20.5t52.25-20.5l43-43q20.5-23.5 20.5-53.25t-20.5-50.25l-371.5-372.5q-23.5-22.5-54.25-22.5t-49.25 22.5l-373 372.5q-22.5 20-22.5 50.5z" horiz-adv-x="948" />
</font>
</defs>
</svg>
